
<svg width="32px" height="32px" viewBox="0 0 32 32" version="1.1" xmlns="http://www.w3.org/2000/svg" xmlns:xlink="http://www.w3.org/1999/xlink">
    <!-- Generator: Sketch 47.1 (45422) - http://www.bohemiancoding.com/sketch -->
    <desc>Created with Sketch.</desc>
    <defs></defs>
    <g id="Symbols" stroke="none" stroke-width="1" fill="none" fill-rule="evenodd">
        <g id="Import" fill="#FFFFFF">
            <path d="M15,22.2402 L15,5.0002 C15,4.4502 15.45,4.0002 16,4.0002 C16.55,4.0002 17,4.4502 17,5.0002 L17,22.2402 L20.23,18.3602 C20.42,18.1392 20.69,18.0002 21,18.0002 C21.55,18.0002 22,18.4502 22,19.0002 C22,19.2402 21.91,19.4692 21.77,19.6392 L16.77,25.6392 C16.58,25.8602 16.31,26.0002 16,26.0002 C15.69,26.0002 15.42,25.8602 15.23,25.6392 L10.23,19.6392 C10.09,19.4692 10,19.2402 10,19.0002 C10,18.4502 10.45,18.0002 11,18.0002 C11.31,18.0002 11.58,18.1392 11.77,18.3602 L15,22.2402 Z" id="Path"></path>
            <path d="M25,10.0002 L19,10.0002 L19,12.0002 L24,12.0002 C24.55,12.0002 25,12.4502 25,13.0002 L25,27.0002 C25,27.5502 24.55,28.0002 24,28.0002 L8,28.0002 C7.45,28.0002 7,27.5502 7,27.0002 L7,13.0002 C7,12.4502 7.45,12.0002 8,12.0002 L13,12.0002 L13,10.0002 L7,10.0002 C5.9,10.0002 5,10.9002 5,12.0002 L5,28.0002 C5,29.0992 5.9,30.0002 7,30.0002 L25,30.0002 C26.1,30.0002 27,29.0992 27,28.0002 L27,12.0002 C27,10.9002 26.1,10.0002 25,10.0002 L25,10.0002 Z" id="Path"></path>
        </g>
    </g>
</svg>
